<svg width="179" height="19" viewBox="0 0 179 19" fill="none" xmlns="http://www.w3.org/2000/svg">
<path d="M10.2599 0.999999H13.4999V15H10.2599V0.999999ZM3.89991 15H0.659912V0.999999H3.89991V15ZM10.4999 9.26H3.65991V6.52H10.4999V9.26Z" fill="white"/>
<path d="M21.9323 15.16C20.7056 15.16 19.6256 14.92 18.6923 14.44C17.7723 13.96 17.0589 13.3067 16.5523 12.48C16.0456 11.64 15.7923 10.6867 15.7923 9.62C15.7923 8.54 16.0389 7.58667 16.5323 6.76C17.0389 5.92 17.7256 5.26667 18.5923 4.8C19.4589 4.32 20.4389 4.08 21.5323 4.08C22.5856 4.08 23.5323 4.30667 24.3723 4.76C25.2256 5.2 25.8989 5.84 26.3923 6.68C26.8856 7.50667 27.1323 8.5 27.1323 9.66C27.1323 9.78 27.1256 9.92 27.1123 10.08C27.0989 10.2267 27.0856 10.3667 27.0723 10.5H18.3323V8.68H25.4323L24.2323 9.22C24.2323 8.66 24.1189 8.17333 23.8923 7.76C23.6656 7.34667 23.3523 7.02667 22.9523 6.8C22.5523 6.56 22.0856 6.44 21.5523 6.44C21.0189 6.44 20.5456 6.56 20.1323 6.8C19.7323 7.02667 19.4189 7.35333 19.1923 7.78C18.9656 8.19333 18.8523 8.68667 18.8523 9.26V9.74C18.8523 10.3267 18.9789 10.8467 19.2323 11.3C19.4989 11.74 19.8656 12.08 20.3323 12.32C20.8123 12.5467 21.3723 12.66 22.0123 12.66C22.5856 12.66 23.0856 12.5733 23.5123 12.4C23.9523 12.2267 24.3523 11.9667 24.7123 11.62L26.3723 13.42C25.8789 13.98 25.2589 14.4133 24.5123 14.72C23.7656 15.0133 22.9056 15.16 21.9323 15.16Z" fill="white"/>
<path d="M35.7494 4.08C36.6028 4.08 37.3628 4.25333 38.0294 4.6C38.7094 4.93333 39.2428 5.45333 39.6294 6.16C40.0161 6.85333 40.2094 7.74667 40.2094 8.84V15H37.0894V9.32C37.0894 8.45333 36.8961 7.81333 36.5094 7.4C36.1361 6.98667 35.6028 6.78 34.9094 6.78C34.4161 6.78 33.9694 6.88667 33.5694 7.1C33.1828 7.3 32.8761 7.61333 32.6494 8.04C32.4361 8.46667 32.3294 9.01333 32.3294 9.68V15H29.2094V4.24H32.1894V7.22L31.6294 6.32C32.0161 5.6 32.5694 5.04667 33.2894 4.66C34.0094 4.27333 34.8294 4.08 35.7494 4.08Z" fill="white"/>
<path d="M43.0376 15V4.24H46.0176V7.28L45.5976 6.4C45.9176 5.64 46.4309 5.06667 47.1376 4.68C47.8442 4.28 48.7042 4.08 49.7176 4.08V6.96C49.5842 6.94667 49.4642 6.94 49.3576 6.94C49.2509 6.92667 49.1376 6.92 49.0176 6.92C48.1642 6.92 47.4709 7.16667 46.9376 7.66C46.4176 8.14 46.1576 8.89333 46.1576 9.92V15H43.0376Z" fill="white"/>
<path d="M56.6146 15.16C55.4679 15.16 54.4479 14.92 53.5546 14.44C52.6746 13.96 51.9746 13.3067 51.4546 12.48C50.9479 11.64 50.6946 10.6867 50.6946 9.62C50.6946 8.54 50.9479 7.58667 51.4546 6.76C51.9746 5.92 52.6746 5.26667 53.5546 4.8C54.4479 4.32 55.4679 4.08 56.6146 4.08C57.7479 4.08 58.7613 4.32 59.6546 4.8C60.5479 5.26667 61.2479 5.91333 61.7546 6.74C62.2613 7.56667 62.5146 8.52667 62.5146 9.62C62.5146 10.6867 62.2613 11.64 61.7546 12.48C61.2479 13.3067 60.5479 13.96 59.6546 14.44C58.7613 14.92 57.7479 15.16 56.6146 15.16ZM56.6146 12.6C57.1346 12.6 57.6013 12.48 58.0146 12.24C58.4279 12 58.7546 11.66 58.9946 11.22C59.2346 10.7667 59.3546 10.2333 59.3546 9.62C59.3546 8.99333 59.2346 8.46 58.9946 8.02C58.7546 7.58 58.4279 7.24 58.0146 7C57.6013 6.76 57.1346 6.64 56.6146 6.64C56.0946 6.64 55.6279 6.76 55.2146 7C54.8013 7.24 54.4679 7.58 54.2146 8.02C53.9746 8.46 53.8546 8.99333 53.8546 9.62C53.8546 10.2333 53.9746 10.7667 54.2146 11.22C54.4679 11.66 54.8013 12 55.2146 12.24C55.6279 12.48 56.0946 12.6 56.6146 12.6Z" fill="white"/>
<path d="M68.2201 15.16C67.3001 15.16 66.4134 15.0533 65.5601 14.84C64.7201 14.6133 64.0534 14.3333 63.5601 14L64.6001 11.76C65.0934 12.0667 65.6734 12.32 66.3401 12.52C67.0201 12.7067 67.6867 12.8 68.3401 12.8C69.0601 12.8 69.5667 12.7133 69.8601 12.54C70.1667 12.3667 70.3201 12.1267 70.3201 11.82C70.3201 11.5667 70.2001 11.38 69.9601 11.26C69.7334 11.1267 69.4267 11.0267 69.0401 10.96C68.6534 10.8933 68.2267 10.8267 67.7601 10.76C67.3067 10.6933 66.8467 10.6067 66.3801 10.5C65.9134 10.38 65.4867 10.2067 65.1001 9.98C64.7134 9.75333 64.4001 9.44667 64.1601 9.06C63.9334 8.67333 63.8201 8.17333 63.8201 7.56C63.8201 6.88 64.0134 6.28 64.4001 5.76C64.8001 5.24 65.3734 4.83333 66.1201 4.54C66.8667 4.23333 67.7601 4.08 68.8001 4.08C69.5334 4.08 70.2801 4.16 71.0401 4.32C71.8001 4.48 72.4334 4.71333 72.9401 5.02L71.9001 7.24C71.3801 6.93333 70.8534 6.72667 70.3201 6.62C69.8001 6.5 69.2934 6.44 68.8001 6.44C68.1067 6.44 67.6001 6.53333 67.2801 6.72C66.9601 6.90667 66.8001 7.14667 66.8001 7.44C66.8001 7.70667 66.9134 7.90667 67.1401 8.04C67.3801 8.17333 67.6934 8.28 68.0801 8.36C68.4667 8.44 68.8867 8.51333 69.3401 8.58C69.8067 8.63333 70.2734 8.72 70.7401 8.84C71.2067 8.96 71.6267 9.13333 72.0001 9.36C72.3867 9.57333 72.7001 9.87333 72.9401 10.26C73.1801 10.6333 73.3001 11.1267 73.3001 11.74C73.3001 12.4067 73.1001 13 72.7001 13.52C72.3001 14.0267 71.7201 14.4267 70.9601 14.72C70.2134 15.0133 69.3001 15.16 68.2201 15.16Z" fill="white"/>
<path d="M87.9999 19H82.9999V0H87.9999V19Z" fill="#00B37E"/>
<path d="M104.36 16.12C102.973 16.12 101.72 15.8133 100.6 15.2C99.4932 14.5867 98.6199 13.74 97.9799 12.66C97.3532 11.5667 97.0399 10.3467 97.0399 9C97.0399 7.65333 97.3532 6.44 97.9799 5.36C98.6199 4.26667 99.4999 3.41333 100.62 2.8C101.74 2.18667 102.993 1.88 104.38 1.88C105.42 1.88 106.38 2.05333 107.26 2.4C108.14 2.74667 108.887 3.25333 109.5 3.92L108.56 4.86C107.467 3.75333 106.087 3.2 104.42 3.2C103.313 3.2 102.307 3.45333 101.4 3.96C100.493 4.46667 99.7799 5.16 99.2599 6.04C98.7532 6.92 98.4999 7.90667 98.4999 9C98.4999 10.0933 98.7532 11.08 99.2599 11.96C99.7799 12.84 100.493 13.5333 101.4 14.04C102.307 14.5467 103.313 14.8 104.42 14.8C106.1 14.8 107.48 14.24 108.56 13.12L109.5 14.06C108.887 14.7267 108.133 15.24 107.24 15.6C106.36 15.9467 105.4 16.12 104.36 16.12Z" fill="white"/>
<path d="M117.715 5.4C119.035 5.4 120.082 5.78667 120.855 6.56C121.642 7.32 122.035 8.43333 122.035 9.9V16H120.615V10.04C120.615 8.94667 120.342 8.11333 119.795 7.54C119.248 6.96667 118.468 6.68 117.455 6.68C116.322 6.68 115.422 7.02 114.755 7.7C114.102 8.36667 113.775 9.29333 113.775 10.48V16H112.355V1.16H113.775V7.32C114.162 6.70667 114.695 6.23333 115.375 5.9C116.055 5.56667 116.835 5.4 117.715 5.4Z" fill="white"/>
<path d="M135.529 5.48V16H134.169V13.92C133.742 14.6267 133.176 15.1667 132.469 15.54C131.776 15.9133 130.989 16.1 130.109 16.1C129.122 16.1 128.229 15.8733 127.429 15.42C126.629 14.9667 126.002 14.3333 125.549 13.52C125.096 12.7067 124.869 11.78 124.869 10.74C124.869 9.7 125.096 8.77333 125.549 7.96C126.002 7.14667 126.629 6.52 127.429 6.08C128.229 5.62667 129.122 5.4 130.109 5.4C130.962 5.4 131.729 5.58 132.409 5.94C133.102 6.28667 133.669 6.8 134.109 7.48V5.48H135.529ZM130.229 14.84C130.962 14.84 131.622 14.6733 132.209 14.34C132.809 13.9933 133.276 13.5067 133.609 12.88C133.956 12.2533 134.129 11.54 134.129 10.74C134.129 9.94 133.956 9.22667 133.609 8.6C133.276 7.97333 132.809 7.49333 132.209 7.16C131.622 6.81333 130.962 6.64 130.229 6.64C129.482 6.64 128.809 6.81333 128.209 7.16C127.622 7.49333 127.156 7.97333 126.809 8.6C126.476 9.22667 126.309 9.94 126.309 10.74C126.309 11.54 126.476 12.2533 126.809 12.88C127.156 13.5067 127.622 13.9933 128.209 14.34C128.809 14.6733 129.482 14.84 130.229 14.84Z" fill="white"/>
<path d="M144.664 15.36C144.397 15.6 144.07 15.7867 143.684 15.92C143.297 16.04 142.89 16.1 142.464 16.1C141.477 16.1 140.717 15.8333 140.184 15.3C139.65 14.7667 139.384 14.0133 139.384 13.04V3.18H140.804V5.48H143.984V6.68H140.804V12.96C140.804 13.5867 140.957 14.0667 141.264 14.4C141.57 14.72 142.017 14.88 142.604 14.88C143.244 14.88 143.764 14.7 144.164 14.34L144.664 15.36Z" fill="white"/>
<path d="M152.658 5.4C153.644 5.4 154.538 5.62667 155.338 6.08C156.138 6.52 156.764 7.14667 157.218 7.96C157.671 8.77333 157.898 9.7 157.898 10.74C157.898 11.78 157.671 12.7067 157.218 13.52C156.764 14.3333 156.138 14.9667 155.338 15.42C154.538 15.8733 153.644 16.1 152.658 16.1C151.778 16.1 150.984 15.9133 150.278 15.54C149.584 15.1667 149.024 14.6267 148.598 13.92V16H147.238V1.16H148.658V7.48C149.098 6.8 149.658 6.28667 150.338 5.94C151.031 5.58 151.804 5.4 152.658 5.4ZM152.558 14.84C153.291 14.84 153.958 14.6733 154.558 14.34C155.158 13.9933 155.624 13.5067 155.958 12.88C156.304 12.2533 156.478 11.54 156.478 10.74C156.478 9.94 156.304 9.22667 155.958 8.6C155.624 7.97333 155.158 7.49333 154.558 7.16C153.958 6.81333 153.291 6.64 152.558 6.64C151.811 6.64 151.138 6.81333 150.538 7.16C149.951 7.49333 149.484 7.97333 149.138 8.6C148.804 9.22667 148.638 9.94 148.638 10.74C148.638 11.54 148.804 12.2533 149.138 12.88C149.484 13.5067 149.951 13.9933 150.538 14.34C151.138 14.6733 151.811 14.84 152.558 14.84Z" fill="white"/>
<path d="M165.092 16.1C164.079 16.1 163.166 15.8733 162.352 15.42C161.539 14.9533 160.899 14.3133 160.432 13.5C159.966 12.6867 159.732 11.7667 159.732 10.74C159.732 9.71333 159.966 8.79333 160.432 7.98C160.899 7.16667 161.539 6.53333 162.352 6.08C163.166 5.62667 164.079 5.4 165.092 5.4C166.106 5.4 167.019 5.62667 167.832 6.08C168.646 6.53333 169.279 7.16667 169.732 7.98C170.199 8.79333 170.432 9.71333 170.432 10.74C170.432 11.7667 170.199 12.6867 169.732 13.5C169.279 14.3133 168.646 14.9533 167.832 15.42C167.019 15.8733 166.106 16.1 165.092 16.1ZM165.092 14.84C165.839 14.84 166.506 14.6733 167.092 14.34C167.692 13.9933 168.159 13.5067 168.492 12.88C168.826 12.2533 168.992 11.54 168.992 10.74C168.992 9.94 168.826 9.22667 168.492 8.6C168.159 7.97333 167.692 7.49333 167.092 7.16C166.506 6.81333 165.839 6.64 165.092 6.64C164.346 6.64 163.672 6.81333 163.072 7.16C162.486 7.49333 162.019 7.97333 161.672 8.6C161.339 9.22667 161.172 9.94 161.172 10.74C161.172 11.54 161.339 12.2533 161.672 12.88C162.019 13.5067 162.486 13.9933 163.072 14.34C163.672 14.6733 164.346 14.84 165.092 14.84Z" fill="white"/>
<path d="M178.511 15.36C178.245 15.6 177.918 15.7867 177.531 15.92C177.145 16.04 176.738 16.1 176.311 16.1C175.325 16.1 174.565 15.8333 174.031 15.3C173.498 14.7667 173.231 14.0133 173.231 13.04V3.18H174.651V5.48H177.831V6.68H174.651V12.96C174.651 13.5867 174.805 14.0667 175.111 14.4C175.418 14.72 175.865 14.88 176.451 14.88C177.091 14.88 177.611 14.7 178.011 14.34L178.511 15.36Z" fill="white"/>
</svg>
