<svg width="35" height="19" viewBox="0 0 35 19" fill="none" xmlns="http://www.w3.org/2000/svg">
<path d="M20.1474 19H15.1474V0H20.1474V19Z" fill="#00B37E"/>
<path d="M29.5644 15.5C28.1778 15.5 26.9244 15.1933 25.8044 14.58C24.6978 13.9667 23.8244 13.12 23.1844 12.04C22.5578 10.9467 22.2444 9.72666 22.2444 8.37999C22.2444 7.03333 22.5578 5.81999 23.1844 4.74C23.8244 3.64666 24.7044 2.79333 25.8244 2.18C26.9444 1.56666 28.1978 1.26 29.5844 1.26C30.6244 1.26 31.5844 1.43333 32.4644 1.78C33.3444 2.12666 34.0911 2.63333 34.7044 3.29999L33.7644 4.24C32.6711 3.13333 31.2911 2.58 29.6244 2.58C28.5178 2.58 27.5111 2.83333 26.6044 3.33999C25.6978 3.84666 24.9844 4.54 24.4644 5.42C23.9578 6.3 23.7044 7.28666 23.7044 8.37999C23.7044 9.47333 23.9578 10.46 24.4644 11.34C24.9844 12.22 25.6978 12.9133 26.6044 13.42C27.5111 13.9267 28.5178 14.18 29.6244 14.18C31.3044 14.18 32.6844 13.62 33.7644 12.5L34.7044 13.44C34.0911 14.1067 33.3378 14.62 32.4444 14.98C31.5644 15.3267 30.6044 15.5 29.5644 15.5Z" fill="white"/>
<path d="M9.6 1.5H12.84V15.5H9.6L9.84 9L9.6 1.5ZM3.24 15.5H0V1.5H3.24L3 8.39L3.24 15.5ZM9.84 9.76H3V7.02H9.84V9.76Z" fill="white"/>
</svg>
